
<svg xmlns="http://www.w3.org/2000/svg" viewBox="0 0 300 200">
  <defs>
    <linearGradient id="physicalCityGradient" x1="0%" y1="0%" x2="100%" y2="100%">
      <stop offset="0%" stopColor="#2B50AA"/>
      <stop offset="100%" stopColor="#4B7BE5"/>
    </linearGradient>
    <linearGradient id="digitalCityGradient" x1="0%" y1="0%" x2="100%" y2="100%">
      <stop offset="0%" stopColor="#34D399"/>
      <stop offset="100%" stopColor="#6EE7B7"/>
    </linearGradient>
    <filter id="glow" x="-20%" y="-20%" width="140%" height="140%">
      <feGaussianBlur stdDeviation="2" result="blur"/>
      <feComposite in="SourceGraphic" in2="blur" operator="over"/>
    </filter>
  </defs>
  <g transform="translate(50, 40)">
    <g transform="rotate(-15, 100, 60)" filter="url(#glow)">
      <rect x="40" y="30" width="20" height="70" fill="url(#physicalCityGradient)"/>
      <rect x="70" y="20" width="20" height="80" fill="url(#physicalCityGradient)"/>
      <rect x="100" y="10" width="25" height="90" fill="url(#physicalCityGradient)"/>
      <rect x="135" y="25" width="15" height="75" fill="url(#physicalCityGradient)"/>
      <polygon points="160,40 180,40 170,20 160,40" fill="url(#physicalCityGradient)"/>
    </g>
    <g transform="rotate(15, 100, 110)" filter="url(#glow)">
      <g fill="url(#digitalCityGradient)">
        <rect x="40" y="100" width="20" height="5" />
        <rect x="40" y="110" width="20" height="5" />
        <rect x="40" y="120" width="20" height="5" />
        <rect x="40" y="130" width="20" height="5" />
        <rect x="70" y="90" width="5" height="5" />
        <rect x="80" y="90" width="5" height="5" />
        <rect x="70" y="100" width="5" height="5" />
        <rect x="80" y="100" width="5" height="5" />
        <rect x="70" y="110" width="5" height="5" />
        <rect x="80" y="110" width="5" height="5" />
        <rect x="70" y="120" width="5" height="5" />
        <rect x="80" y="120" width="5" height="5" />
        <rect x="70" y="130" width="5" height="5" />
        <rect x="80" y="130" width="5" height="5" />
        <rect x="100" y="85" width="25" height="5" />
        <rect x="100" y="95" width="25" height="5" />
        <rect x="100" y="105" width="25" height="5" />
        <rect x="100" y="115" width="25" height="5" />
        <rect x="100" y="125" width="25" height="5" />
        <rect x="100" y="135" width="25" height="5" />
        <rect x="135" y="100" width="5" height="5" />
        <rect x="145" y="100" width="5" height="5" />
        <rect x="135" y="110" width="5" height="5" />
        <rect x="145" y="110" width="5" height="5" />
        <rect x="135" y="120" width="5" height="5" />
        <rect x="145" y="120" width="5" height="5" />
        <rect x="135" y="130" width="5" height="5" />
        <rect x="145" y="130" width="5" height="5" />
      </g>
    </g>
  </g>
</svg>
